<svg width="50" height="50" viewBox="0 0 50 50" fill="none" xmlns="http://www.w3.org/2000/svg">
    <circle cx="25" cy="25" r="22.25" stroke="#F9F9F9" stroke-width="5.5"/>
    <path fill-rule="evenodd" clip-rule="evenodd" d="M26.3153 0.0340068C25.8797 0.0114289 25.4412 0 25 0C11.1929 0 0 11.1929 0 25C0 38.8071 11.1929 50 25 50C38.8071 50 50 38.8071 50 25C50 24.5586 49.9886 24.1198 49.966 23.684H44.6937C44.7223 24.119 44.7368 24.5578 44.7368 25C44.7368 35.9004 35.9004 44.7368 25 44.7368C14.0996 44.7368 5.26316 35.9004 5.26316 25C5.26316 14.0996 14.0996 5.26316 25 5.26316C25.442 5.26316 25.8806 5.27769 26.3153 5.30629V0.0340068Z" fill="url(#paint0_linear_17_1919)">
        <animateTransform attributeName="transform" attributeType="XML" type="rotate" dur="1s" from="0 25 25" to="360 25 25" repeatCount="indefinite"></animateTransform>
    </path>
    <defs>
        <linearGradient id="paint0_linear_17_1919" x1="50" y1="-7.04219e-05" x2="-0.971808" y2="1.01107" gradientUnits="userSpaceOnUse">
            <stop stop-color="#8600FA"/>
            <stop offset="0.5" stop-color="#C602E5"/>
            <stop offset="1" stop-color="#F4266B"/>
        </linearGradient>
    </defs>
</svg>
