<svg width="1452" height="990" viewBox="0 0 1452 990" fill="none" xmlns="http://www.w3.org/2000/svg">
<g clip-path="url(#clip0_0_3)">
<path d="M1032.33 92.5935C973.582 92.4943 915.472 104.251 861.774 127.1C767.063 44.9975 643.894 -0.387643 516.224 -0.229139C379.44 -0.229139 248.26 51.8795 151.539 144.635C54.8181 237.39 0.47998 363.193 0.47998 494.368C0.47998 625.544 54.8181 751.346 151.539 844.101C248.26 936.856 379.44 988.966 516.224 988.966C643.894 989.124 767.063 943.738 861.774 861.635C915.455 884.533 973.577 896.293 1032.33 896.142C1143.66 896.142 1250.44 853.728 1329.17 778.229C1407.89 702.731 1452.12 600.333 1452.12 493.562C1451.68 387.071 1407.25 285.087 1328.57 209.937C1249.89 134.787 1143.37 92.5927 1032.33 92.5935V92.5935ZM516.584 806.884C430.347 806.884 347.641 774.031 286.662 715.552C225.683 657.074 191.424 577.759 191.424 495.058C191.424 412.356 225.683 333.042 286.662 274.563C347.641 216.084 430.347 183.231 516.584 183.231C602.822 183.231 685.527 216.084 746.506 274.563C807.486 333.042 841.741 412.356 841.741 495.058C841.742 536.036 833.32 576.613 816.957 614.468C800.594 652.323 776.61 686.714 746.378 715.675C716.146 744.635 680.26 767.597 640.768 783.248C601.276 798.898 558.955 806.929 516.224 806.884H516.584Z" fill="white" fill-opacity="0.06"/>
</g>
<defs>
<clipPath id="clip0_0_3">
<rect width="1452" height="990" fill="white"/>
</clipPath>
</defs>
</svg>
