<svg width="154" height="42" viewBox="0 0 154 42" fill="none" xmlns="http://www.w3.org/2000/svg">
<path d="M81.291 2.70898H89.1222C89.8173 2.70898 90.4396 2.8118 90.9891 3.01742C91.5548 3.22305 92.0317 3.50776 92.4196 3.87156C92.8075 4.23536 93.0984 4.68616 93.2924 5.22395C93.5025 5.74593 93.6076 6.32326 93.6076 6.95596C93.6076 7.58866 93.5187 8.12645 93.3409 8.56934C93.1793 8.99641 92.953 9.3523 92.662 9.63701C92.3873 9.92173 92.064 10.1353 91.6922 10.2776C91.3366 10.42 90.9649 10.4991 90.5769 10.5149V10.6572C90.9487 10.6572 91.3447 10.7284 91.765 10.8708C92.2014 11.0131 92.5974 11.2425 92.953 11.5588C93.3247 11.8594 93.6318 12.2548 93.8743 12.7451C94.1167 13.2197 94.238 13.8128 94.238 14.5246C94.238 15.1889 94.1248 15.8137 93.8985 16.399C93.6884 16.9684 93.3894 17.4666 93.0015 17.8937C92.6135 18.3208 92.1529 18.6608 91.6195 18.9139C91.0861 19.1512 90.5042 19.2698 89.8738 19.2698H81.291V2.70898ZM84.4914 16.6125H88.9525C89.5667 16.6125 90.0435 16.4622 90.383 16.1617C90.7224 15.8454 90.8921 15.3946 90.8921 14.8093V14.0026C90.8921 13.4174 90.7224 12.9666 90.383 12.6502C90.0435 12.3339 89.5667 12.1757 88.9525 12.1757H84.4914V16.6125ZM84.4914 9.61329H88.4434C89.0252 9.61329 89.4778 9.46302 89.8011 9.16249C90.1244 8.84614 90.286 8.41116 90.286 7.85755V7.12204C90.286 6.56843 90.1244 6.14136 89.8011 5.84083C89.4778 5.52448 89.0252 5.36631 88.4434 5.36631H84.4914V9.61329Z" fill="white"/>
<path d="M107.025 19.2698L105.668 15.0466H99.6547L98.3212 19.2698H95.0724L100.746 2.70898H104.722L110.347 19.2698H107.025ZM102.71 5.55612H102.588L100.431 12.3655H104.892L102.71 5.55612Z" fill="white"/>
<path d="M117.205 10.7759L115.46 7.33558H115.387V19.2698H112.356V2.70898H115.872L120.963 11.2029L122.709 14.6432H122.782V2.70898H125.812V19.2698H122.297L117.205 10.7759Z" fill="white"/>
<path d="M134.753 11.7724L132.498 14.3822V19.2698H129.298V2.70898H132.498V10.8708H132.619L135.019 7.76265L139.214 2.70898H142.899L137.008 9.61329L143.384 19.2698H139.578L134.753 11.7724Z" fill="white"/>
<path d="M89.2919 26.5749V40.3598H86.0916V26.5749H81.291V23.7989H94.0925V26.5749H89.2919Z" fill="white"/>
<path d="M99.4284 40.3598H96.228V23.7989H103.865C104.641 23.7989 105.336 23.9176 105.95 24.1548C106.565 24.3921 107.082 24.7401 107.502 25.1988C107.938 25.6416 108.27 26.1794 108.496 26.8121C108.739 27.4448 108.86 28.1487 108.86 28.9238C108.86 30.0626 108.593 31.0433 108.06 31.8658C107.542 32.6883 106.758 33.2736 105.708 33.6215L109.175 40.3598H105.611L102.459 33.9774H99.4284V40.3598ZM103.55 31.3438C104.164 31.3438 104.649 31.1856 105.005 30.8693C105.36 30.5371 105.538 30.0705 105.538 29.4695V28.3781C105.538 27.777 105.36 27.3183 105.005 27.0019C104.649 26.6856 104.164 26.5274 103.55 26.5274H99.4284V31.3438H103.55Z" fill="white"/>
<path d="M114.566 23.7989V33.9774C114.566 35.2745 114.817 36.2472 115.318 36.8957C115.835 37.5443 116.7 37.8685 117.912 37.8685C119.124 37.8685 119.981 37.5443 120.482 36.8957C120.999 36.2472 121.258 35.2745 121.258 33.9774V23.7989H124.41V33.5741C124.41 34.792 124.289 35.8439 124.046 36.7297C123.82 37.6154 123.448 38.3509 122.931 38.9362C122.414 39.5214 121.735 39.9564 120.894 40.2411C120.07 40.51 119.068 40.6445 117.888 40.6445C116.692 40.6445 115.682 40.51 114.857 40.2411C114.049 39.9564 113.386 39.5214 112.869 38.9362C112.352 38.3509 111.98 37.6154 111.754 36.7297C111.528 35.8439 111.414 34.792 111.414 33.5741V23.7989H114.566Z" fill="white"/>
<path d="M133.052 40.6445C131.597 40.6445 130.36 40.3914 129.342 39.8852C128.34 39.3791 127.475 38.7147 126.748 37.8922L128.906 35.8518C129.488 36.5161 130.134 37.0223 130.845 37.3703C131.573 37.7182 132.373 37.8922 133.246 37.8922C134.232 37.8922 134.975 37.6866 135.476 37.2754C135.977 36.8483 136.228 36.2789 136.228 35.5671C136.228 35.0135 136.066 34.5627 135.743 34.2147C135.42 33.8667 134.813 33.6136 133.924 33.4555L132.324 33.2182C128.946 32.6962 127.257 31.0907 127.257 28.4018C127.257 27.6584 127.394 26.9861 127.669 26.3851C127.96 25.784 128.372 25.2699 128.906 24.8429C129.439 24.4158 130.077 24.0915 130.821 23.8701C131.581 23.6328 132.437 23.5142 133.391 23.5142C134.668 23.5142 135.783 23.7198 136.737 24.1311C137.69 24.5423 138.507 25.1513 139.186 25.958L137.004 27.9747C136.583 27.4686 136.074 27.0573 135.476 26.741C134.878 26.4246 134.126 26.2664 133.221 26.2664C132.3 26.2664 131.605 26.4404 131.136 26.7884C130.684 27.1206 130.457 27.5951 130.457 28.212C130.457 28.8447 130.643 29.3113 131.015 29.6118C131.387 29.9123 131.985 30.1338 132.809 30.2762L134.385 30.5609C136.098 30.8614 137.359 31.3992 138.167 32.1742C138.992 32.9335 139.404 34.0012 139.404 35.3773C139.404 36.1681 139.258 36.8878 138.967 37.5363C138.693 38.169 138.28 38.7227 137.731 39.1972C137.198 39.6559 136.535 40.0118 135.743 40.2649C134.967 40.5179 134.07 40.6445 133.052 40.6445Z" fill="white"/>
<path d="M148.297 26.5749V40.3598H145.097V26.5749H140.296V23.7989H153.097V26.5749H148.297Z" fill="white"/>
<g clip-path="url(#clip0_287_3825)">
<path d="M44.3104 3.92818C41.7889 3.92397 39.2947 4.42275 36.9898 5.39211C32.9247 1.90896 27.638 -0.0164725 22.1582 -0.00974807C16.2872 -0.00974807 10.6567 2.20092 6.50522 6.13598C2.35378 10.071 0.0214844 15.4082 0.0214844 20.9732C0.0214844 26.5382 2.35378 31.8752 6.50522 35.8103C10.6567 39.7454 16.2872 41.9561 22.1582 41.9561C27.638 41.9628 32.9247 40.0373 36.9898 36.5542C39.2939 37.5256 41.7886 38.0245 44.3104 38.0181C49.0891 38.0181 53.6722 36.2187 57.0512 33.0158C60.4303 29.8128 62.3286 25.4686 62.3286 20.939C62.3096 16.4212 60.4027 12.0946 57.0257 8.9064C53.6487 5.7182 49.0767 3.92815 44.3104 3.92818ZM22.1737 34.2314C18.4722 34.2314 14.9223 32.8377 12.305 30.3567C9.68763 27.8758 8.21718 24.511 8.21718 21.0024C8.21718 17.4939 9.68763 14.129 12.305 11.6481C14.9223 9.16718 18.4722 7.77343 22.1737 7.77343C25.8751 7.77343 29.425 9.16718 32.0424 11.6481C34.6597 14.129 36.13 17.4939 36.13 21.0024C36.13 22.7409 35.7686 24.4623 35.0662 26.0683C34.3639 27.6743 33.3344 29.1333 32.0368 30.3619C30.7392 31.5905 29.1989 32.5647 27.5039 33.2287C25.8088 33.8926 23.9923 34.2333 22.1582 34.2314H22.1737Z" fill="#2D91DF"/>
</g>
<defs>
<clipPath id="clip0_287_3825">
<rect width="62.3226" height="42" fill="white"/>
</clipPath>
</defs>
</svg>
